Coordinates
version=1
nRows=8
nColumns=42
inDegrees=yes

Units are S.I. units (second, meters, Newtons, ...)
If the header above contains a line with 'inDegrees', this indicates whether rotational values are in degrees (yes) or radians (no).

endheader
time	pelvis_tilt	pelvis_list	pelvis_rotation	pelvis_tx	pelvis_ty	pelvis_tz	hip_flexion_r	hip_adduction_r	hip_rotation_r	knee_angle_r	knee_adduction_r	knee_angle_r_beta	ankle_angle_r	subtalar_angle_r	mtp_angle_r	hip_flexion_l	hip_adduction_l	hip_rotation_l	knee_angle_l	knee_adduction_l	knee_angle_l_beta	ankle_angle_l	subtalar_angle_l	mtp_angle_l	lumbar_extension	lumbar_bending	lumbar_rotation	arm_flex_r	arm_add_r	arm_rot_r	elbow_flex_r	pro_sup_r	wrist_flex_r	wrist_dev_r	arm_flex_l	arm_add_l	arm_rot_l	elbow_flex_l	pro_sup_l	wrist_flex_l	wrist_dev_l
      0.00000000	      2.69885073	     -2.02376977	     -5.79345238	     -1.38092292	      1.00319537	     -0.23645839	    -16.41711650	      0.62657224	      3.83093831	      6.03284025	     10.64563686	      0.10529293	     13.10483377	      8.18578553	     -9.44268753	     20.85162787	    -12.47021662	    -11.01102794	     15.39350703	     11.88211515	      0.26866738	      1.61206462	     -6.28850943	     -9.44268753	    -13.93445114	     -1.65144606	     12.09259441	     16.42600466	    -19.26793332	     -4.65979861	     35.79199153	     90.00000001	      0.00000000	      0.00000000	    -14.45849223	    -13.86999932	     -5.61067572	     16.68909032	     90.00000001	      0.00000000	      0.00000000
      0.01000000	      2.37002166	     -2.40130737	     -6.16777534	     -1.36795601	      1.00022473	     -0.23623245	    -16.77250538	      0.95030325	      4.17556035	      6.33526211	     10.52389916	      0.11057118	     13.46895636	      8.18297388	     -9.40318527	     21.20031556	    -13.03852848	    -11.66524051	     12.73502111	     12.35208275	      0.22226805	      1.42497577	     -4.69037075	     -9.40318527	    -13.66475294	     -1.36037566	     12.48088702	     17.27567881	    -19.68183967	     -3.99860608	     36.38788087	     90.00000001	      0.00000000	      0.00000000	    -15.14751016	    -13.74066383	     -5.80709864	     16.78363277	     90.00000001	      0.00000000	      0.00000000
      0.02000000	      2.02000855	     -2.65542262	     -6.49757676	     -1.35451603	      0.99720064	     -0.23580429	    -17.14824028	      1.19796619	      4.40302382	      6.60057660	     10.32780167	      0.11520179	     13.76851895	      8.13613643	     -9.37712959	     21.58490564	    -13.54436914	    -12.40318961	     10.47846944	     12.93535574	      0.18288379	      1.12435605	     -3.22449600	     -9.37712959	    -13.31928944	     -1.24074412	     12.76477489	     18.02871332	    -19.95601999	     -3.36153225	     36.86930412	     90.00000001	      0.00000000	      0.00000000	    -15.82690542	    -13.68611315	     -6.01470560	     16.83264144	     90.00000001	      0.00000000	      0.00000000
      0.03000000	      2.33149475	     -2.63473633	     -7.11310556	     -1.34063267	      0.99511050	     -0.23573961	    -18.29149929	      0.82807645	      5.27692569	      6.62853438	     10.36352811	      0.11568975	     13.84433724	      7.67972601	     -9.28640951	     21.03309910	    -13.60886940	    -13.59601198	      8.38690660	     13.21296470	      0.14637913	      1.38444597	     -1.35787737	     -9.28640951	    -13.66690837	     -1.48413329	     13.14386236	     18.80734725	    -20.37678550	     -2.18950190	     37.49437790	     90.00000001	      0.00000000	      0.00000000	    -16.34997793	    -13.41345378	     -6.97828967	     16.69031477	     90.00000001	      0.00000000	      0.00000000
      0.04000000	      2.11136372	     -2.79621445	     -7.51222778	     -1.32699832	      0.99244951	     -0.23549648	    -18.70682326	      0.89324589	      5.73681303	      7.06910504	     10.19808393	      0.12337916	     14.00364789	      7.50622648	     -9.25368874	     21.29541636	    -13.92634838	    -14.15524029	      6.97990529	     13.57327285	      0.12182233	      1.41759336	     -0.16001784	     -9.25368874	    -13.45681996	     -1.47174448	     13.35793809	     19.55577576	    -20.56789686	     -1.50598500	     37.77294673	     90.00000001	      0.00000000	      0.00000000	    -16.91235769	    -13.26441931	     -7.31212650	     16.68286249	     90.00000001	      0.00000000	      0.00000000
      0.05000000	      2.05473253	     -2.80297008	     -7.93920385	     -1.31303123	      0.99012283	     -0.23524642	    -19.28349423	      0.73136234	      6.22496952	      7.51032590	     10.05853277	      0.13107991	     14.08309842	      7.31171539	     -9.22667588	     21.35696909	    -14.02471141	    -14.67427336	      6.00234934	     13.78769403	      0.10476076	      1.51750331	      0.77951996	     -9.22667588	    -13.37464561	     -1.66830519	     13.56098544	     20.17279524	    -20.72047419	     -0.73717505	     38.04482328	     90.00000001	      0.00000000	      0.00000000	    -17.39357375	    -13.13154705	     -7.72367081	     16.61658154	     90.00000001	      0.00000000	      0.00000000
      0.06000000	      2.31429586	     -2.50809165	     -8.40631126	     -1.29862317	      0.98835807	     -0.23531815	    -20.26590271	      0.10035968	      7.13725310	      7.66469095	     10.04407787	      0.13377409	     13.80175623	      6.43394749	     -9.08838078	     21.14190476	    -13.74660680	    -15.74799998	      5.76117243	     13.85038836	      0.10055143	      1.98382827	      2.26467110	     -9.08838078	    -13.58044637	     -2.22169611	     13.71415700	     20.68325346	    -20.85570936	      0.03169724	     38.40465125	     90.00000001	      0.00000000	      0.00000000	    -17.47816877	    -12.83432651	     -9.44394107	     15.98476056	     90.00000001	      0.00000000	      0.00000000
      0.07000000	      2.31885869	     -2.33224449	     -8.79480588	     -1.28428937	      0.98643362	     -0.23528001	    -20.75442478	     -0.27462366	      7.55919018	      8.35685468	      9.87878810	      0.14585463	     13.72868191	      6.24497216	     -9.06342027	     21.21894873	    -13.56079226	    -15.88418049	      5.76820780	     13.85253034	      0.10067422	      2.07540567	      2.26210204	     -9.06342027	    -13.51980491	     -2.61645953	     13.86775230	     21.03676492	    -20.93966858	      0.62992604	     38.69723705	     90.00000001	      0.00000000	      0.00000000	    -17.80863026	    -12.75209508	     -9.62105019	     15.91509090	     90.00000001	      0.00000000	      0.00000000
